<?xml version="1.0" encoding="UTF-8" standalone="no"?>
<!-- Created with Inkscape (http://www.inkscape.org/) -->

<svg
   xmlns:dc="http://purl.org/dc/elements/1.1/"
   xmlns:cc="http://creativecommons.org/ns#"
   xmlns:rdf="http://www.w3.org/1999/02/22-rdf-syntax-ns#"
   xmlns:svg="http://www.w3.org/2000/svg"
   xmlns="http://www.w3.org/2000/svg"
   xmlns:sodipodi="http://sodipodi.sourceforge.net/DTD/sodipodi-0.dtd"
   xmlns:inkscape="http://www.inkscape.org/namespaces/inkscape"
   width="48"
   height="48"
   id="svg2"
   version="1.1"
   inkscape:version="0.48.4 r9939"
   sodipodi:docname="address.svg">
  <defs
     id="defs4" />
  <sodipodi:namedview
     id="base"
     pagecolor="#ffffff"
     bordercolor="#666666"
     borderopacity="1.0"
     inkscape:pageopacity="0.0"
     inkscape:pageshadow="2"
     inkscape:zoom="5.6"
     inkscape:cx="47.885107"
     inkscape:cy="41.704536"
     inkscape:document-units="px"
     inkscape:current-layer="layer1"
     showgrid="false"
     inkscape:window-width="1920"
     inkscape:window-height="1056"
     inkscape:window-x="0"
     inkscape:window-y="24"
     inkscape:window-maximized="1" />
  <metadata
     id="metadata7">
    <rdf:RDF>
      <cc:Work
         rdf:about="">
        <dc:format>image/svg+xml</dc:format>
        <dc:type
           rdf:resource="http://purl.org/dc/dcmitype/StillImage" />
        <dc:title />
      </cc:Work>
    </rdf:RDF>
  </metadata>
  <g
     inkscape:label="Capa 1"
     inkscape:groupmode="layer"
     id="layer1"
     transform="translate(0,-1004.3622)">
    <path
       style="fill:#000000"
       d="m 23.314825,1048.1951 c -0.200445,-0.082 -0.52829,-0.3314 -0.728668,-0.554 -0.3518,-0.3909 -0.366089,-0.6987 -0.415067,-8.9425 l -0.05067,-8.5378 -8.552718,-0.051 -8.5527181,-0.051 -0.5008226,-0.5009 c -0.6245561,-0.6246 -0.6905784,-1.7184 -0.1406668,-2.3295 0.1980001,-0.22 8.7143845,-4.578 18.9250595,-9.6843 16.37688,-8.1897 18.63526,-9.2708 19.162238,-9.172 0.680601,0.1289 1.52549,1.0152 1.539201,1.6167 0.0044,0.2178 -4.191336,8.8105 -9.325118,19.0947 -9.644897,19.3216 -9.636786,19.3069 -10.659454,19.2718 -0.184889,0 -0.500178,-0.078 -0.700556,-0.16 z"
       id="path3043"
       inkscape:connector-curvature="0" />
  </g>
</svg>
