<?xml version="1.0" encoding="UTF-8" standalone="no"?>
<svg
   xmlns:dc="http://purl.org/dc/elements/1.1/"
   xmlns:cc="http://creativecommons.org/ns#"
   xmlns:rdf="http://www.w3.org/1999/02/22-rdf-syntax-ns#"
   xmlns:svg="http://www.w3.org/2000/svg"
   xmlns="http://www.w3.org/2000/svg"
   version="1.1"
   id="svg2"
   viewBox="0 0 31.999999 31.999998"
   height="32"
   width="32">
  <defs
     id="defs4" />
  <metadata
     id="metadata7">
    <rdf:RDF>
      <cc:Work
         rdf:about="">
        <dc:format>image/svg+xml</dc:format>
        <dc:type
           rdf:resource="http://purl.org/dc/dcmitype/StillImage" />
        <dc:title></dc:title>
      </cc:Work>
    </rdf:RDF>
  </metadata>
  <g
     transform="translate(0,-1020.3622)"
     id="layer1">
    <path
       d="m 7.5559483,1181.0236 q 0.450004,-0.4499 0.450004,-1.0687 0,-0.6187 -0.450004,-1.05 -0.4312471,-0.45 -1.0499985,-0.45 -0.6187515,0 -1.0687555,0.45 -0.431247,0.4313 -0.431247,1.05 0,0.6188 0.431247,1.0687 0.450004,0.4313 1.0687555,0.4313 0.6187514,0 1.0499985,-0.4313 z m 4.3500057,-4.0687 0,-13.2 q 0,-0.2438 -0.187499,-0.4125 -0.168752,-0.1875 -0.4125,-0.1875 l -9.60001,0 q -0.2437535,0 -0.4312525,0.1875 -0.1687528,0.1687 -0.1687528,0.4125 l 0,13.2 q 0,0.2438 0.1687528,0.4312 0.187499,0.1688 0.4312525,0.1688 l 9.60001,0 q 0.243748,0 0.4125,-0.1688 0.187499,-0.1874 0.187499,-0.4312 z m -3.9000017,-15.6 q 0.2999973,0 0.2999973,-0.3 0,-0.3 -0.2999973,-0.3 l -3.000005,0 q -0.3000027,0 -0.3000027,0.3 0,0.3 0.3000027,0.3 l 3.000005,0 z m 5.7000017,-0.6 0,19.2 q 0,0.975 -0.712498,1.6875 -0.712504,0.7125 -1.687501,0.7125 l -9.60001,0 q -0.97500328,0 -1.68750689,-0.7125 -0.71249824,-0.7125 -0.71249824,-1.6875 l 0,-19.2 q 0,-0.975 0.71249824,-1.6875 0.71250361,-0.7125 1.68750689,-0.7125 l 9.60001,0 q 0.974997,0 1.687501,0.7125 0.712498,0.7125 0.712498,1.6875 z"
       style="font-style:normal;font-variant:normal;font-weight:normal;font-stretch:normal;font-size:medium;line-height:125%;font-family:FontAwesome;-inkscape-font-specification:FontAwesome;letter-spacing:0px;word-spacing:0px;fill:#000000;fill-opacity:1;stroke:none;stroke-width:1px;stroke-linecap:butt;stroke-linejoin:miter;stroke-opacity:1"
       id="path4162" />
    <path
       d="m 12.567302,1029.3239 q 0.158655,0.1586 0.389426,0.1586 0.230771,0 0.389425,-0.1586 0.173074,-0.1731 0.173074,-0.4039 0,-0.2307 -0.173074,-0.3894 -0.158654,-0.173 -0.389425,-0.173 -0.230771,0 -0.389426,0.173 -0.158654,0.1587 -0.158654,0.3894 0,0.2308 0.158654,0.4039 z m 6.072121,0 q 0.173078,0.1586 0.403845,0.1586 0.230771,0 0.389426,-0.1586 0.158654,-0.1731 0.158654,-0.4039 0,-0.2307 -0.158654,-0.3894 -0.158655,-0.173 -0.389426,-0.173 -0.230767,0 -0.403845,0.173 -0.158654,0.1587 -0.158654,0.3894 0,0.2308 0.158654,0.4039 z m -11.3076979,2.8125 q 0.605768,0 1.038462,0.4327 0.432694,0.4327 0.432694,1.0384 l 0,6.202 q 0,0.6202 -0.432694,1.0529 -0.41827,0.4327 -1.038462,0.4327 -0.620192,0 -1.052886,-0.4327 -0.432694,-0.4327 -0.432694,-1.0529 l 0,-6.202 q 0,-0.6057 0.432694,-1.0384 0.432694,-0.4327 1.052886,-0.4327 z m 15.2884709,0.274 0,9.6058 q 0,0.6635 -0.461542,1.125 -0.461538,0.4615 -1.110575,0.4615 l -1.081734,0 0,3.2741 q 0,0.6202 -0.43269,1.0529 -0.432694,0.4327 -1.052886,0.4327 -0.620192,0 -1.052886,-0.4327 -0.432694,-0.4327 -0.432694,-1.0529 l 0,-3.2741 -1.990382,0 0,3.2741 q 0,0.6202 -0.432694,1.0529 -0.432694,0.4327 -1.052886,0.4327 -0.605768,0 -1.038462,-0.4327 -0.432693,-0.4327 -0.432693,-1.0529 l -0.01443,-3.2741 -1.06731,0 q -0.663461,0 -1.1249989,-0.4615 -0.461538,-0.4615 -0.461538,-1.125 l 0,-9.6058 13.2403919,0 z m -3.346157,-5.8413 q 1.543269,0.7933 2.466345,2.2211 0.92308,1.4135 0.92308,3.101 l -13.3413529,0 q 0,-1.6875 0.9230769,-3.101 0.923076,-1.4278 2.480769,-2.2211 l -1.024038,-1.8894 q -0.100961,-0.1875 0.07212,-0.2885 0.187498,-0.087 0.28846,0.086 l 1.038462,1.9039 q 1.370194,-0.6058 2.899042,-0.6058 1.528844,0 2.899038,0.6058 l 1.038462,-1.9039 q 0.100962,-0.173 0.28846,-0.086 0.173078,0.101 0.07212,0.2885 l -1.024038,1.8894 z m 6.879812,7.0384 0,6.202 q 0,0.6202 -0.432694,1.0529 -0.432694,0.4327 -1.052886,0.4327 -0.605768,0 -1.038462,-0.4327 -0.432694,-0.4327 -0.432694,-1.0529 l 0,-6.202 q 0,-0.6201 0.432694,-1.0384 0.432694,-0.4327 1.038462,-0.4327 0.620192,0 1.052886,0.4327 0.432694,0.4183 0.432694,1.0384 z"
       style="font-style:normal;font-variant:normal;font-weight:normal;font-stretch:normal;font-size:medium;line-height:125%;font-family:FontAwesome;-inkscape-font-specification:FontAwesome;letter-spacing:0px;word-spacing:0px;fill:#000000;fill-opacity:1;stroke:none;stroke-width:1px;stroke-linecap:butt;stroke-linejoin:miter;stroke-opacity:1"
       id="path4159" />
    <path
       d="m -24.757127,1243.1055 q 0,1.875 -1.140626,2.9532 -1.140627,1.0937 -3.031255,1.0937 l -13.656255,0 q -1.890623,0 -3.03125,-1.0937 -1.140626,-1.0782 -1.140626,-2.9532 0,-0.8281 0.04687,-1.6093 0.0625,-0.7969 0.218754,-1.7031 0.171871,-0.9219 0.421873,-1.7032 0.250002,-0.7812 0.671875,-1.5156 0.421877,-0.75 0.968751,-1.2656 0.546874,-0.5313 1.328123,-0.8438 0.796876,-0.3125 1.750001,-0.3125 0.140627,0 0.656253,0.3438 0.515626,0.3281 1.156248,0.75 0.656253,0.4062 1.6875,0.75 1.046878,0.3281 2.093752,0.3281 1.046878,0 2.078129,-0.3281 1.046874,-0.3438 1.6875,-0.75 0.656249,-0.4219 1.171875,-0.75 0.515626,-0.3438 0.656248,-0.3438 0.953125,0 1.734379,0.3125 0.796872,0.3125 1.34375,0.8438 0.546874,0.5156 0.968751,1.2656 0.421873,0.7344 0.671875,1.5156 0.249998,0.7813 0.406251,1.7032 0.171871,0.9062 0.21875,1.7031 0.0625,0.7812 0.0625,1.6093 z m -6.765631,-18.1875 q 1.765627,1.75 1.765627,4.2344 0,2.4844 -1.765627,4.25 -1.750001,1.75 -4.234377,1.75 -2.484376,0 -4.249999,-1.75 -1.750001,-1.7656 -1.750001,-4.25 0,-2.4844 1.750001,-4.2344 1.765623,-1.7656 4.249999,-1.7656 2.484376,0 4.234377,1.7656 z"
       style="font-style:normal;font-variant:normal;font-weight:normal;font-stretch:normal;font-size:medium;line-height:125%;font-family:FontAwesome;-inkscape-font-specification:FontAwesome;letter-spacing:0px;word-spacing:0px;fill:#000000;fill-opacity:1;stroke:none;stroke-width:1px;stroke-linecap:butt;stroke-linejoin:miter;stroke-opacity:1"
       id="path4156" />
    <path
       d="m 90.331204,1076.1718 q -0.56249,1.8029 -1.77401,3.6058 -1.86054,2.8268 -3.70667,2.8268 -0.70671,0 -2.01919,-0.4615 -1.240363,-0.4616 -2.177846,-0.4616 -0.879792,0 -2.048043,0.476 -1.168247,0.4904 -1.903812,0.4904 -2.19227,0 -4.341272,-3.7355 -2.120155,-3.7644 -2.120155,-7.2547 0,-3.2884 1.629777,-5.3941 1.615357,-2.0769 4.096086,-2.0769 1.038443,0 2.55284,0.4327 1.499974,0.4326 1.990351,0.4326 0.649025,0 2.062464,-0.4903 1.47113,-0.4904 2.49515,-0.4904 1.71631,0 3.07206,0.9375 0.74999,0.5192 1.49997,1.4422 -1.1394,0.9664 -1.6442,1.7019 -0.93748,1.3558 -0.93748,2.9856 0,1.7884 0.99517,3.2162 0.99518,1.4279 2.27881,1.8173 z m -5.42298,-16.9179 q 0,0.8798 -0.41827,1.9615 -0.43268,1.0817 -1.34132,1.9903 -0.778831,0.7788 -1.557663,1.0385 -0.533645,0.1586 -1.499973,0.2451 0.04327,-2.149 1.124978,-3.7066 1.067292,-1.5433 3.605708,-2.1346 0.0144,0.043 0.0288,0.1587 0.0289,0.1153 0.0433,0.1586 0,0.058 0,0.1442 0.0144,0.087 0.0144,0.1443 z"
       style="font-style:normal;font-variant:normal;font-weight:normal;font-stretch:normal;font-size:medium;line-height:125%;font-family:FontAwesome;-inkscape-font-specification:FontAwesome;letter-spacing:0px;word-spacing:0px;fill:#000000;fill-opacity:1;stroke:none;stroke-width:1px;stroke-linecap:butt;stroke-linejoin:miter;stroke-opacity:1"
       id="path4153" />
    <path
       d="m 42.25012,1124.3691 q 2.179927,-2.7405 3.404842,-3.6124 1.660897,-1.2042 3.508649,-1.2042 2.179935,0 4.069207,1.5779 1.910033,1.5778 1.910033,5.0865 0,2.4498 -0.705885,3.8616 -0.705878,1.391 -2.200688,2.2422 -1.494809,0.8512 -3.072667,0.8512 -1.847752,0 -3.508649,-1.1834 -1.224915,-0.8927 -3.404842,-3.6332 -2.823533,3.5501 -6,3.5501 -2.096887,0 -3.612457,-1.5778 -1.49481,-1.5986 -1.49481,-3.9654 0,-2.346 1.49481,-3.9446 1.51557,-1.5987 3.612457,-1.5987 3.176467,0 6,3.5502 z m 1.432522,1.9723 q 1.806232,2.8028 3.301042,3.8409 0.955012,0.6851 2.138407,0.6851 1.577858,0 2.636677,-1.1626 1.079588,-1.1627 1.079588,-3.2803 0,-2.2007 -1.100348,-3.3633 -1.079587,-1.1627 -2.698964,-1.1627 -1.0173,0 -1.910032,0.5813 -1.204155,0.8097 -3.44637,3.8616 z m -2.865052,0.021 q -1.660898,-2.0761 -2.657437,-2.6574 -0.99654,-0.6021 -1.910033,-0.6021 -1.204155,0 -2.013839,0.8512 -0.788933,0.8513 -0.788933,2.3461 0,1.474 0.830453,2.3667 0.830452,0.872 2.013839,0.872 2.096888,0 4.52595,-3.1765 z"
       style="font-style:normal;font-variant:normal;font-weight:normal;font-stretch:normal;font-size:medium;line-height:125%;font-family:FontAwesome;-inkscape-font-specification:FontAwesome;letter-spacing:0px;word-spacing:0px;fill:#000000;fill-opacity:1;stroke:none;stroke-width:1px;stroke-linecap:butt;stroke-linejoin:miter;stroke-opacity:1"
       id="path4173" />
  </g>
</svg>
