<?xml version="1.0" encoding="UTF-8" standalone="no"?>
<svg
   xmlns:dc="http://purl.org/dc/elements/1.1/"
   xmlns:cc="http://creativecommons.org/ns#"
   xmlns:rdf="http://www.w3.org/1999/02/22-rdf-syntax-ns#"
   xmlns:svg="http://www.w3.org/2000/svg"
   xmlns="http://www.w3.org/2000/svg"
   viewBox="0 0 48.000001 47.999999"
   height="48"
   width="48"
   xml:space="preserve"
   version="1.1"
   id="svg5169"><metadata
     id="metadata5175"><rdf:RDF><cc:Work
         rdf:about=""><dc:format>image/svg+xml</dc:format><dc:type
           rdf:resource="http://purl.org/dc/dcmitype/StillImage" /><dc:title></dc:title></cc:Work></rdf:RDF></metadata><defs
     id="defs5173"><linearGradient
       id="linearGradient5191"
       spreadMethod="pad"
       gradientTransform="matrix(-8e-6,184.02686,184.02686,8e-6,78.92334,0)"
       gradientUnits="userSpaceOnUse"
       y2="0"
       x2="1"
       y1="0"
       x1="0"><stop
         id="stop5193"
         offset="0"
         style="stop-opacity:1;stop-color:#529c4e" /><stop
         id="stop5195"
         offset="0.494624"
         style="stop-opacity:1;stop-color:#6abb51" /><stop
         id="stop5197"
         offset="1"
         style="stop-opacity:1;stop-color:#6abb51" /></linearGradient><clipPath
       id="clipPath5205"
       clipPathUnits="userSpaceOnUse"><path
         id="path5207"
         d="m 0,184.027 157.848,0 L 157.848,0 0,0 0,184.027 Z" /></clipPath></defs><g
     transform="matrix(1.25,0,0,-1.25,0,47.999998)"
     id="g5177"><g
       transform="matrix(0.18692909,0,0,0.18692909,4.4468085,1.9999986)"
       id="g5777"><g
         id="g5179"><g
           id="g5181"><g
             id="g5187"><g
               id="g5189"><path
                 d="m 73.338,184.027 c -0.086,-0.2 -0.248,-0.192 -0.405,-0.185 l 0,0 c -0.048,0.003 -0.097,0.006 -0.142,0.002 l 0,0 c -2.686,-0.239 -5.363,-0.543 -8.014,-1.046 l 0,0 C 45.39,179.124 29.47,169.606 17.146,154.229 l 0,0 C 7.01,141.584 1.428,127.078 0.222,110.904 l 0,0 C 0.077,108.957 0.003,107.014 0,105.076 l 0,0 0,-0.255 C 0.009,99.045 0.65,93.312 1.922,87.637 l 0,0 c 1.277,-5.7 3.182,-11.206 5.744,-16.47 l 0,0 c 0.225,-0.449 0.448,-0.898 0.676,-1.344 l 0,0 C 12.551,61.535 17.965,54.149 24.751,47.77 l 0,0 c 3.573,-3.358 7.389,-6.395 11.524,-9.02 l 0,0 C 48.939,30.712 62.763,26.497 77.781,26.308 l 0,0 c 0.92,-0.012 1.171,-0.24 1.167,-1.181 l 0,0 C 78.906,17.089 78.923,9.049 78.925,1.011 l 0,0 C 78.926,0.699 78.951,0.388 78.967,0 l 0,0 c 0.26,0.106 0.423,0.166 0.58,0.24 l 0,0 c 15.097,7.093 28.96,16.056 41.319,27.291 l 0,0 c 2.458,2.236 4.811,4.577 7.075,7.015 l 0,0 c 0.969,1.044 1.929,2.106 2.901,3.146 l 0,0 c 1.5,1.605 2.798,3.398 4.212,5.085 l 0,0 c 1.633,1.948 3.099,4.019 4.545,6.103 l 0,0 c 3.198,4.606 6.052,9.411 8.452,14.487 l 0,0 c 1.214,2.567 2.37,5.153 3.393,7.799 l 0,0 c 0.034,0.05 0.08,0.094 0.101,0.148 l 0,0 c 2.788,7.249 4.574,14.749 5.527,22.444 l 0,0 c 0.332,2.68 0.547,5.378 0.682,8.073 l 0,0 c 0.061,1.218 0.092,2.434 0.094,3.648 l 0,0 0,0.265 c -0.008,4.482 -0.415,8.942 -1.226,13.367 l 0,0 c -2.793,15.227 -9.461,28.529 -19.995,39.879 l 0,0 c -4.446,4.792 -9.426,8.956 -14.925,12.491 l 0,0 c -10.241,6.584 -21.399,10.618 -33.498,12.047 l 0,0 c -1.475,0.175 -2.971,0.153 -4.425,0.499 l 0,0 -10.441,0 z m 43.699,-53.638 c 2.435,0.004 4.453,-2.453 3.673,-4.856 l 0,0 c 0.185,-0.454 0.153,-0.932 0.153,-1.407 l 0,0 c 0,-10.335 0.004,-20.67 -0.003,-31.006 l 0,0 C 120.852,83.886 115.066,75.247 106.537,71.7 l 0,0 c -0.217,-0.09 -0.422,-0.208 -0.631,-0.315 l 0,0 c 0.146,-0.182 0.321,-0.237 0.505,-0.246 l 0,0 c 0.006,0 0.012,0 0.018,0 l 0,0 c -0.006,0 -0.012,0 -0.018,0 l 0,0 c -0.184,0.009 -0.36,0.064 -0.506,0.246 l 0,0 c -0.116,-0.031 -0.233,-0.065 -0.351,-0.097 l 0,0 c -0.066,-0.038 -0.132,-0.076 -0.199,-0.113 l 0,0 c -1.782,-0.504 -3.58,-0.922 -5.418,-1.192 l 0,0 c -1.403,-0.206 -2.462,0.586 -2.479,1.996 l 0,0 c -0.012,0.989 -0.02,1.978 -0.028,2.968 l 0,0 c 0.016,1.77 0.034,3.541 0.05,5.311 l 0,0 c -0.008,0.39 -0.024,0.78 -0.023,1.169 l 0,0 c 0.002,1.36 0.527,1.933 2.216,2.32 l 0,0 c 2.144,0.491 4.162,1.182 5.83,2.732 l 0,0 c 2.003,1.861 3.015,4.182 3.474,6.806 l 0,0 c -5.784,0.012 -11.567,0.022 -17.352,0.033 l 0,0 c -0.209,0 -0.42,-0.001 -0.63,-0.002 l 0,0 c -0.419,-0.001 -0.838,-0.002 -1.257,0.005 l 0,0 c -2.363,0.04 -3.98,1.672 -3.979,4.047 l 0,0 c 0.003,9.35 0.016,18.701 0.024,28.053 l 0,0 c 0,0.089 -0.01,0.179 -0.016,0.268 l 0,0 c -0.182,1.75 0.322,3.184 1.876,4.158 l 0,0 c 0.605,0.378 1.261,0.536 1.957,0.536 l 0,0 c 3.834,0.002 7.669,10e-4 11.504,10e-4 l 0,0 c 5.311,0 10.622,0 15.933,0.005 m -48.782,0 c 2.437,0.004 4.454,-2.453 3.674,-4.856 l 0,0 c 0.189,-0.454 0.154,-0.933 0.154,-1.408 l 0,0 c 0.002,-10.318 0.059,-20.638 -0.018,-30.955 l 0,0 C 72.014,86.324 69.348,80.564 64.337,75.894 l 0,0 C 64.076,75.651 63.823,75.398 63.566,75.15 l 0,0 c -2.601,-1.99 -5.412,-3.56 -8.597,-4.423 l 0,0 c -1.355,-0.368 -2.737,-0.578 -4.118,-0.781 l 0,0 c -1.068,-0.156 -1.763,0.437 -2.162,1.402 l 0,0 c 0.004,2.97 0.006,5.938 0.011,8.908 l 0,0 c 0.05,0.874 -0.3,1.81 0.4,2.582 l 0,0 c 0.347,0.381 0.74,0.642 1.271,0.777 l 0,0 c 1.555,0.391 3.131,0.704 4.548,1.549 l 0,0 c 2.609,1.556 4.232,3.804 4.951,6.733 l 0,0 c 0.113,0.461 0.219,0.925 0.327,1.388 l 0,0 c -6.262,0.012 -12.524,0.023 -18.785,0.031 l 0,0 c -0.542,10e-4 -1.077,0.02 -1.603,0.166 l 0,0 c -1.596,0.444 -2.818,1.9 -2.82,3.545 l 0,0 c -0.012,9.468 0.006,18.937 0.013,28.406 l 0,0 c -0.132,1.512 10e-4,2.93 1.274,4.011 l 0,0 c 0.691,0.585 1.45,0.941 2.358,0.941 l 0,0 c 3.187,0 6.374,0 9.561,0 l 0,0 c 2.128,-0.001 4.257,-0.001 6.385,-0.001 l 0,0 c 3.892,0 7.783,0.001 11.675,0.005"
                 style="fill:url(#linearGradient5191);stroke:none"
                 id="path5199" /></g></g></g></g><g
         id="g5201"><g
           id="g5203"
           clip-path="url(#clipPath5205)"><g
             id="g5209"
             transform="translate(105.355,71.1748)"><path
               d="m 0,0 c -1.782,-0.504 -3.58,-0.922 -5.418,-1.191 -1.403,-0.206 -2.462,0.586 -2.478,1.996 -0.013,0.989 -0.021,1.977 -0.03,2.966 0.017,1.771 0.034,3.542 0.051,5.314 0.51,1.182 1.614,1.396 2.691,1.64 4.998,1.128 8.061,4.391 8.782,9.442 0.09,0.63 0.477,1.293 0.024,1.943 -5.784,0.012 -11.567,0.023 -17.351,0.034 -0.629,0.001 -1.259,-0.008 -1.888,0.002 -2.363,0.04 -3.98,1.672 -3.979,4.047 0.003,9.351 0.016,18.702 0.024,28.053 0,0.09 -0.01,0.179 -0.016,0.269 0.252,0.11 0.27,0.374 0.383,0.577 0.781,1.394 1.947,2.145 3.571,2.145 9.077,-0.002 18.155,0.003 27.232,-0.005 1.846,-10e-4 3.232,-1.082 3.756,-2.874 0.186,-0.454 0.154,-0.932 0.154,-1.407 0,-10.335 0.005,-20.67 -0.003,-31.006 C 15.497,12.712 9.711,4.072 1.182,0.525 0.965,0.436 0.761,0.316 0.551,0.211 0.434,0.179 0.316,0.146 0.199,0.113 0.133,0.075 0.066,0.037 0,0"
               style="fill:#ffffff;fill-opacity:1;fill-rule:evenodd;stroke:none"
               id="path5211" /></g><g
             id="g5213"
             transform="translate(63.5659,75.1504)"><path
               d="m 0,0 c -2.601,-1.99 -5.411,-3.561 -8.597,-4.423 -1.355,-0.368 -2.737,-0.579 -4.118,-0.781 -1.068,-0.156 -1.764,0.436 -2.162,1.401 0.004,2.97 0.007,5.939 0.011,8.908 0.49,1.138 1.539,1.374 2.59,1.616 5.077,1.171 7.988,4.199 8.857,9.303 0.115,0.678 0.5,1.401 0.05,2.111 -6.262,0.011 -12.524,0.023 -18.785,0.031 -0.542,0.001 -1.076,0.02 -1.603,0.166 -1.596,0.443 -2.818,1.899 -2.82,3.545 -0.012,9.468 0.006,18.936 0.013,28.405 0.675,1.766 1.825,2.966 3.83,2.97 9.142,0.018 18.287,0.013 27.429,0.003 C 6.471,53.253 7.869,52.126 8.363,50.383 8.552,49.929 8.517,49.449 8.517,48.975 8.519,38.656 8.576,28.337 8.499,18.02 8.448,11.173 5.782,5.413 0.771,0.744 0.51,0.501 0.257,0.248 0,0"
               style="fill:#ffffff;fill-opacity:1;fill-rule:evenodd;stroke:none"
               id="path5215" /></g><g
             id="g5217"
             transform="translate(71.9292,125.5332)"><path
               d="m 0,0 c -0.494,1.743 -1.893,2.87 -3.668,2.872 -9.143,0.01 -18.287,0.015 -27.43,-0.003 -2.005,-0.004 -3.154,-1.204 -3.83,-2.97 -0.131,1.513 10e-4,2.931 1.275,4.012 0.691,0.585 1.45,0.941 2.358,0.941 9.207,0.002 18.414,-0.005 27.621,0.004 C -1.237,4.859 0.78,2.402 0,0"
               style="fill:#5aa550;fill-opacity:1;fill-rule:evenodd;stroke:none"
               id="path5219" /></g><g
             id="g5221"
             transform="translate(120.7095,125.5332)"><path
               d="m 0,0 c -0.524,1.792 -1.91,2.873 -3.757,2.874 -9.077,0.008 -18.154,0.003 -27.231,0.005 -1.624,0 -2.79,-0.751 -3.572,-2.146 -0.113,-0.203 -0.13,-0.466 -0.382,-0.577 -0.182,1.75 0.321,3.184 1.876,4.157 0.604,0.379 1.26,0.537 1.956,0.537 9.145,0.004 18.291,-0.003 27.437,0.006 C -1.237,4.859 0.78,2.402 0,0"
               style="fill:#5aa550;fill-opacity:1;fill-rule:evenodd;stroke:none"
               id="path5223" /></g><g
             id="g5225"
             transform="translate(108.9771,93.2852)"><path
               d="m 0,0 c 0.453,-0.65 0.065,-1.313 -0.024,-1.943 -0.721,-5.051 -3.784,-8.315 -8.782,-9.443 -1.077,-0.243 -2.181,-0.458 -2.691,-1.639 -0.008,0.388 -0.024,0.778 -0.023,1.167 0.002,1.36 0.527,1.932 2.216,2.32 2.144,0.491 4.161,1.183 5.83,2.732 C -1.471,-4.944 -0.46,-2.624 0,0"
               style="fill:#5aa550;fill-opacity:1;fill-rule:evenodd;stroke:none"
               id="path5227" /></g><g
             id="g5229"
             transform="translate(60.1968,93.2852)"><path
               d="m 0,0 c 0.45,-0.71 0.065,-1.433 -0.05,-2.11 -0.869,-5.105 -3.78,-8.133 -8.857,-9.304 -1.051,-0.242 -2.1,-0.478 -2.59,-1.615 0.051,0.874 -0.3,1.809 0.4,2.582 0.347,0.382 0.741,0.642 1.272,0.776 1.554,0.392 3.131,0.705 4.547,1.55 2.609,1.557 4.232,3.804 4.951,6.733 C -0.214,-0.927 -0.108,-0.463 0,0"
               style="fill:#5aa550;fill-opacity:1;fill-rule:evenodd;stroke:none"
               id="path5231" /></g><g
             id="g5233"
             transform="translate(105.355,71.1748)"><path
               d="M 0,0 C 0.066,0.037 0.133,0.075 0.199,0.113 0.133,0.075 0.066,0.037 0,0"
               style="fill:#5faf51;fill-opacity:1;fill-rule:evenodd;stroke:none"
               id="path5235" /></g></g></g></g></g></svg>