<?xml version="1.0" encoding="UTF-8" standalone="no"?>
<svg
   xmlns:dc="http://purl.org/dc/elements/1.1/"
   xmlns:cc="http://creativecommons.org/ns#"
   xmlns:rdf="http://www.w3.org/1999/02/22-rdf-syntax-ns#"
   xmlns:svg="http://www.w3.org/2000/svg"
   xmlns="http://www.w3.org/2000/svg"
   version="1.1"
   id="svg4203"
   viewBox="0 0 48.000001 48.000001"
   height="48"
   width="48">
  <defs
     id="defs4205" />
  <metadata
     id="metadata4208">
    <rdf:RDF>
      <cc:Work
         rdf:about="">
        <dc:format>image/svg+xml</dc:format>
        <dc:type
           rdf:resource="http://purl.org/dc/dcmitype/StillImage" />
        <dc:title></dc:title>
      </cc:Work>
    </rdf:RDF>
  </metadata>
  <g
     transform="translate(0,-1004.3622)"
     id="layer1">
    <path
       d="m 16.166667,1018.8622 q 1.166666,1.1667 1.166666,2.8334 0,1.6666 -1.166666,2.8333 -1.166667,1.1667 -2.833334,1.1667 -1.666666,0 -2.833333,-1.1667 -1.1666664,-1.1667 -1.1666664,-2.8333 0,-1.6667 1.1666664,-2.8334 1.166667,-1.1666 2.833333,-1.1666 1.666667,0 2.833334,1.1666 z m 22.499999,10.8334 0,9.3333 -29.3333324,0 0,-4 L 16,1028.3622 19.333333,1031.6956 30,1021.0289 l 8.666666,8.6667 z m 2,-14.6667 -33.3333323,0 q -0.2708333,0 -0.4791667,0.2083 -0.1874999,0.1875 -0.1874999,0.4584 l 0,25.3333 q 0,0.2708 0.1874999,0.4792 0.2083334,0.1875 0.4791667,0.1875 l 33.3333323,0 q 0.270833,0 0.458333,-0.1875 0.208334,-0.2084 0.208334,-0.4792 l 0,-25.3333 q 0,-0.2709 -0.208334,-0.4584 -0.1875,-0.2083 -0.458333,-0.2083 z m 3.333333,0.6667 0,25.3333 q 0,1.375 -0.979167,2.3542 -0.979166,0.9791 -2.354166,0.9791 l -33.3333323,0 q -1.375,0 -2.3541666,-0.9791 -0.9791666,-0.9792 -0.9791666,-2.3542 l 0,-25.3333 q 0,-1.375 0.9791666,-2.3542 0.9791666,-0.9792 2.3541666,-0.9792 l 33.3333323,0 q 1.375,0 2.354166,0.9792 0.979167,0.9792 0.979167,2.3542 z"
       style="font-style:normal;font-variant:normal;font-weight:normal;font-stretch:normal;font-size:medium;line-height:125%;font-family:FontAwesome;-inkscape-font-specification:FontAwesome;letter-spacing:0px;word-spacing:0px;fill:#000000;fill-opacity:1;stroke:none;stroke-width:1px;stroke-linecap:butt;stroke-linejoin:miter;stroke-opacity:1"
       id="path4756" />
  </g>
</svg>
