<?xml version="1.0" encoding="UTF-8" standalone="no"?>
<svg
   xmlns:dc="http://purl.org/dc/elements/1.1/"
   xmlns:cc="http://creativecommons.org/ns#"
   xmlns:rdf="http://www.w3.org/1999/02/22-rdf-syntax-ns#"
   xmlns:svg="http://www.w3.org/2000/svg"
   xmlns="http://www.w3.org/2000/svg"
   viewBox="0 0 48 48"
   height="48"
   width="48"
   version="1.1"
   id="svg4197">
  <metadata
     id="metadata4203">
    <rdf:RDF>
      <cc:Work
         rdf:about="">
        <dc:format>image/svg+xml</dc:format>
        <dc:type
           rdf:resource="http://purl.org/dc/dcmitype/StillImage" />
        <dc:title></dc:title>
      </cc:Work>
    </rdf:RDF>
  </metadata>
  <defs
     id="defs4201">
    <filter
       id="filter4224"
       style="color-interpolation-filters:sRGB">
      <feFlood
         id="feFlood4226"
         result="flood"
         flood-color="rgb(0,0,0)"
         flood-opacity="0.498039" />
      <feComposite
         id="feComposite4228"
         result="composite1"
         operator="in"
         in2="SourceGraphic"
         in="flood" />
      <feGaussianBlur
         id="feGaussianBlur4230"
         result="blur"
         stdDeviation="3"
         in="composite1" />
      <feOffset
         id="feOffset4232"
         result="offset"
         dy="6"
         dx="6" />
      <feComposite
         id="feComposite4234"
         result="composite2"
         operator="over"
         in2="offset"
         in="SourceGraphic" />
    </filter>
  </defs>
  <g
     transform="matrix(0.05382329,0,0,0.0564652,-3.4523416,50.038908)"
     id="g4258">
    <path
       style="opacity:1;fill:#33bd0f;fill-opacity:1;stroke:none;stroke-width:3;stroke-miterlimit:4;stroke-dasharray:6, 3;stroke-dashoffset:0;stroke-opacity:1;filter:url(#filter4224)"
       d="m 512.05469,-813.67188 c -19.29226,-0.006 -38.71309,1.20417 -58.10547,3.66993 -92.3243,11.7391 -175.3633,51.29248 -233.8418,111.38476 -75.7511,77.84156 -99.07967,178.72876 -63.63867,275.21485 8.945,24.35227 26.55221,54.82599 44.97461,77.83984 16.3964,20.48275 43.74468,45.79446 66.98828,62 49.9745,34.84253 106.23858,56.93188 173.01758,67.92578 27.7306,4.5654 40.19365,11.06788 43.68555,22.79688 2.2924,7.6997 1.35489,25.23448 -2.58789,48.42968 -3.99111,23.4791 -4.27017,27.78774 -2.13477,32.89844 2.6036,6.2314 9.37473,7.74483 21.33203,4.76563 20.4911,-5.1054 91.05828,-47.72325 157.20508,-94.93946 106.5073,-76.02594 169.62743,-140.4152 200.36133,-204.39062 11.4785,-23.89359 18.32419,-45.92882 22.21289,-71.5 2.2642,-14.88873 2.58458,-50.22703 0.58398,-64.5 -10.5631,-75.35897 -50.8977,-140.76861 -117.90039,-191.19531 -69.24359,-52.11325 -159.19874,-80.37289 -252.15234,-80.4004 z"
       id="path4216" />
    <path
       style="opacity:1;fill:#ffffff;fill-opacity:1;stroke:none;stroke-width:3;stroke-miterlimit:4;stroke-dasharray:6, 3;stroke-dashoffset:0;stroke-opacity:1"
       d="m 490.0625,-599.62305 c -0.91959,-0.0168 -1.78242,0.0418 -2.54883,0.18555 -5.718,1.0727 -11.98434,5.71432 -14.36914,10.64062 -2.1362,4.41349 -2.14505,4.70468 -2.12305,82.36329 0.0208,73.72448 0.1231,78.14966 1.875,81.93359 2.4704,5.33579 6.90057,9.3321 12.23047,11.0332 2.4052,0.76765 5.94805,1.15408 7.87305,0.85742 5.1972,-0.8009 11.51591,-4.87479 14.16211,-9.13085 L 509.5,-425.5 510,-472.41797 c 0.3334,-31.28528 0.84862,-47.03193 1.54492,-47.26367 0.5744,-0.19115 17.97211,22.72886 38.66211,50.93359 41.4402,56.49176 41.16487,56.19089 51.29297,56.14649 2.75,-0.0121 6.37715,-0.7499 8.06055,-1.63867 4.5863,-2.42135 9.35917,-7.74329 10.51367,-11.72461 0.6728,-2.32159 0.92121,-30.51375 0.72461,-82.10938 l -0.29883,-78.57226 -2.75195,-4.15821 c -8.1322,-12.28716 -26.89665,-11.29189 -33.49805,1.77539 -2.236,4.42532 -2.25,4.7452 -2.25,50.18164 0,26.8804 -0.38103,45.9653 -0.92383,46.30078 -1.2614,0.77959 -2.96705,-1.4433 -42.00195,-54.70312 -18.8447,-25.71198 -35.46204,-47.60282 -36.92774,-48.64648 -3.03517,-2.16125 -8.09911,-3.65396 -12.08398,-3.72657 z m 171.28125,0.12305 -4.84375,3 c -3.1813,1.97032 -5.64318,4.51361 -7.17188,7.4082 l -2.32812,4.40625 0,78.38282 c 0,75.16599 0.0781,78.53388 1.9082,82.09179 2.5593,4.97538 6.8026,8.85321 11.6211,10.61719 3.2023,1.1723 11.41826,1.46664 42.47656,1.52344 22.1946,0.0406 39.94344,-0.34169 41.89844,-0.90235 14.3263,-4.10876 19.77532,-20.93479 10.39062,-32.08789 -5.286,-6.28197 -5.89152,-6.39106 -38.79492,-6.93945 l -30,-0.5 0,-16.5 0,-16.5 29.58203,-0.5 29.58203,-0.5 4.83985,-3 c 12.3149,-7.63191 12.65611,-24.64619 0.66211,-32.98633 L 746.83203,-525.5 716.66602,-526 686.5,-526.5 l 0,-16.5 0,-16.5 29.58203,-0.5 29.58203,-0.5 4.83985,-3 c 3.1867,-1.9749 5.66394,-4.53765 7.24804,-7.5 4.9445,-9.2462 1.10845,-21.52159 -8.25195,-26.41016 -3.8721,-2.02226 -5.34492,-2.08984 -46.07812,-2.08984 l -42.07813,0 z m -369.33008,0.0488 c -2.7531,0.0816 -5.52258,0.74133 -8.11523,2.04297 -3.8607,1.93824 -8.64609,7.83922 -9.83789,12.13086 -1.4893,5.36325 -1.44397,153.34355 0.0488,158.77734 1.39539,5.07929 8.31469,11.88188 13.52539,13.29688 2.45,0.66531 18.53381,0.98663 43.94531,0.87695 l 40.08008,-0.17383 4.84179,-3 c 6.8645,-4.25318 9.77625,-9.96559 9.28125,-18.21289 -0.44717,-7.45028 -3.8325,-12.47599 -10.8027,-16.03708 -4.2642,-2.1786 -5.31427,-2.25 -33.07617,-2.25 l -28.67188,0 -0.58789,-2.25 c -0.3236,-1.23725 -0.60786,-31.1916 -0.63086,-66.56641 -0.0409,-62.04686 -0.11263,-64.4555 -2.01953,-68.19336 -3.27814,-6.42558 -9.90182,-10.23443 -16.80273,-10.4414 -0.3921,-0.0118 -0.78444,-0.0117 -1.17774,0 z m 131.79102,0.14648 c -6.92673,-0.0596 -13.88036,3.40365 -17.47657,10.21289 l -2.32812,4.40628 0,78.38282 c 0,75.16599 0.0781,78.53388 1.9082,82.09179 2.6955,5.24028 7.12705,9.12522 12.21875,10.71094 7.9498,2.47585 16.64658,-0.68046 21.60938,-7.8418 l 2.76367,-3.98632 0,-80.66016 0,-80.6582 -2.75195,-4.15625 c -3.7418,-5.65424 -9.83154,-8.44941 -15.94336,-8.50196 z"
       id="rect4214" />
  </g>
</svg>
