<?xml version="1.0" encoding="UTF-8" standalone="no"?>
<!-- Created with Inkscape (http://www.inkscape.org/) -->

<svg
   xmlns:dc="http://purl.org/dc/elements/1.1/"
   xmlns:cc="http://creativecommons.org/ns#"
   xmlns:rdf="http://www.w3.org/1999/02/22-rdf-syntax-ns#"
   xmlns:svg="http://www.w3.org/2000/svg"
   xmlns="http://www.w3.org/2000/svg"
   xmlns:sodipodi="http://sodipodi.sourceforge.net/DTD/sodipodi-0.dtd"
   xmlns:inkscape="http://www.inkscape.org/namespaces/inkscape"
   width="48"
   height="48"
   id="svg2"
   version="1.1"
   inkscape:version="0.48.4 r9939"
   sodipodi:docname="link.svg">
  <defs
     id="defs4" />
  <sodipodi:namedview
     id="base"
     pagecolor="#ffffff"
     bordercolor="#666666"
     borderopacity="1.0"
     inkscape:pageopacity="0.0"
     inkscape:pageshadow="2"
     inkscape:zoom="5.6"
     inkscape:cx="47.885107"
     inkscape:cy="41.704536"
     inkscape:document-units="px"
     inkscape:current-layer="layer1"
     showgrid="false"
     inkscape:window-width="1920"
     inkscape:window-height="1056"
     inkscape:window-x="0"
     inkscape:window-y="24"
     inkscape:window-maximized="1" />
  <metadata
     id="metadata7">
    <rdf:RDF>
      <cc:Work
         rdf:about="">
        <dc:format>image/svg+xml</dc:format>
        <dc:type
           rdf:resource="http://purl.org/dc/dcmitype/StillImage" />
        <dc:title />
      </cc:Work>
    </rdf:RDF>
  </metadata>
  <g
     inkscape:label="Capa 1"
     inkscape:groupmode="layer"
     id="layer1"
     transform="translate(0,-1004.3622)">
    <path
       style="fill:#000000"
       d="m 31.316673,1048.1214 c -1.494848,-0.494 -2.086272,-0.964 -5.449191,-4.3305 -2.960385,-2.9637 -3.471475,-3.5482 -3.930853,-4.496 -0.46369,-0.9569 -0.53549,-1.2753 -0.58929,-2.6151 -0.08667,-2.16 0.300445,-3.4058 1.567892,-5.0442 l 0.435734,-0.5634 -1.054358,-1.0402 -1.05438,-1.0402 -0.472223,0.3871 c -1.521826,1.2473 -2.987118,1.7082 -5.10799,1.606 -1.291603,-0.062 -1.665648,-0.1467 -2.607517,-0.5927 -0.967691,-0.4577 -1.489426,-0.9093 -4.348099,-3.7642 -1.7866486,-1.7844 -3.4461414,-3.5631 -3.6877419,-3.9527 -1.3338254,-2.1506 -1.3609366,-5.3571 -0.062667,-7.3984 0.2478228,-0.3896 1.6056482,-1.8551 3.0173849,-3.2567 2.185627,-2.1698 2.730317,-2.6258 3.667631,-3.0696 1.055802,-0.4997 1.178047,-0.5211 2.989762,-0.5211 1.81096,0 1.934472,0.022 2.990852,0.5207 0.978891,0.4627 1.481781,0.902 4.504721,3.9353 2.955363,2.9656 3.472253,3.5578 3.930832,4.504 0.463712,0.9569 0.53549,1.2754 0.589312,2.6152 0.08667,2.16 -0.300467,3.4058 -1.567892,5.0442 l -0.435735,0.5633 1.074492,1.0663 c 0.590979,0.5864 1.118447,0.9951 1.172136,0.9082 0.224311,-0.3629 1.943204,-1.3591 2.811206,-1.6294 1.814049,-0.5646 4.167743,-0.3106 5.787303,0.6245 0.870002,0.5022 6.241148,5.7438 7.182728,7.0093 1.619515,2.1769 1.779982,5.5949 0.367,7.8165 -0.247822,0.3896 -1.605648,1.8549 -3.017407,3.2567 -2.193516,2.1775 -2.726917,2.6235 -3.66763,3.066 -0.996114,0.4687 -1.258003,0.5218 -2.753629,0.5584 -1.053269,0.027 -1.881249,-0.035 -2.282494,-0.1666 z m 3.195429,-4.7316 c 0.233779,-0.1222 1.388626,-1.202 2.566295,-2.4006 3.213275,-3.27 3.224386,-3.1876 -1.000491,-7.4125 -2.475539,-2.4756 -3.160185,-3.0756 -3.630586,-3.1816 -0.694802,-0.1577 -1.591182,0.022 -2.006605,0.3963 -0.295067,0.2668 -0.287289,0.2891 0.338334,0.968 0.675735,0.7331 1.088558,1.5355 1.088558,2.1162 0,0.7284 -0.619779,1.6747 -1.318469,2.0129 -1.162336,0.5629 -1.895316,0.3786 -3.17003,-0.7965 l -0.674602,-0.6217 -0.326445,0.4151 c -0.179556,0.2282 -0.370756,0.6511 -0.42489,0.9397 -0.199111,1.0616 0.144445,1.5749 2.985652,4.4607 1.480959,1.5043 2.905184,2.8676 3.164918,3.0296 0.567579,0.3542 1.798471,0.3922 2.408361,0.076 z m -17.151617,-17.4158 0.525801,-0.3204 -0.630512,-0.684 c -1.179759,-1.28 -1.388626,-2.1136 -0.812513,-3.2429 0.204,-0.3998 0.538334,-0.7343 0.938202,-0.9383 1.126669,-0.5746 1.963449,-0.3666 3.233363,0.8038 l 0.674579,0.622 0.317557,-0.4038 c 0.464,-0.5897 0.573089,-1.4913 0.268644,-2.22 -0.16,-0.3826 -1.194247,-1.5557 -2.804539,-3.1809 -2.828585,-2.8544 -3.196141,-3.1622 -3.987743,-3.3408 -1.087669,-0.2454 -1.55807,0.042 -3.958476,2.4177 -3.4792302,3.4434 -3.4879858,3.3587 0.78718,7.6045 1.668537,1.6569 3.13994,3.0504 3.269807,3.0964 0.571268,0.2023 1.673893,0.096 2.17865,-0.2133 z"
       id="path3004"
       inkscape:connector-curvature="0" />
  </g>
</svg>
