<?xml version="1.0" encoding="UTF-8" standalone="no"?>
<!-- Created with Inkscape (http://www.inkscape.org/) -->

<svg
   xmlns:dc="http://purl.org/dc/elements/1.1/"
   xmlns:cc="http://creativecommons.org/ns#"
   xmlns:rdf="http://www.w3.org/1999/02/22-rdf-syntax-ns#"
   xmlns:svg="http://www.w3.org/2000/svg"
   xmlns="http://www.w3.org/2000/svg"
   xmlns:sodipodi="http://sodipodi.sourceforge.net/DTD/sodipodi-0.dtd"
   xmlns:inkscape="http://www.inkscape.org/namespaces/inkscape"
   width="48"
   height="48"
   id="svg2"
   version="1.1"
   inkscape:version="0.48.4 r9939"
   sodipodi:docname="list.svg">
  <defs
     id="defs4" />
  <sodipodi:namedview
     id="base"
     pagecolor="#ffffff"
     bordercolor="#666666"
     borderopacity="1.0"
     inkscape:pageopacity="0.0"
     inkscape:pageshadow="2"
     inkscape:zoom="5.6"
     inkscape:cx="77.706536"
     inkscape:cy="41.704536"
     inkscape:document-units="px"
     inkscape:current-layer="layer1"
     showgrid="false"
     inkscape:window-width="1920"
     inkscape:window-height="1056"
     inkscape:window-x="0"
     inkscape:window-y="24"
     inkscape:window-maximized="1" />
  <metadata
     id="metadata7">
    <rdf:RDF>
      <cc:Work
         rdf:about="">
        <dc:format>image/svg+xml</dc:format>
        <dc:type
           rdf:resource="http://purl.org/dc/dcmitype/StillImage" />
        <dc:title></dc:title>
      </cc:Work>
    </rdf:RDF>
  </metadata>
  <g
     inkscape:label="Capa 1"
     inkscape:groupmode="layer"
     id="layer1"
     transform="translate(0,-1004.3622)">
    <path
       style="fill:#000000"
       d="m 7.1972022,1043.9425 c -0.7908179,-0.1977 -1.2569043,-0.4715 -1.9473449,-1.1417 -0.8796397,-0.8536 -1.2166156,-1.6851 -1.2166156,-3.0018 0,-1.3055 0.3311537,-2.1333 1.201749,-3.0038 0.8706175,-0.8706 1.6983685,-1.2017 3.0039392,-1.2017 1.3055706,0 2.1333221,0.3311 3.0039171,1.2017 0.870595,0.8705 1.201749,1.6983 1.201749,3.0038 0,0.7833 -0.08111,1.2524 -0.300354,1.738 -0.377909,0.8367 -1.316771,1.7849 -2.118366,2.1395 -0.7389518,0.3269 -2.082789,0.4534 -2.8286738,0.266 z m 8.4306428,-1.5442 c -0.200221,-0.2222 -0.236732,-0.6264 -0.236732,-2.624 0,-2.1073 0.02822,-2.3882 0.261599,-2.5993 0.239598,-0.2178 1.421703,-0.2369 14.067657,-0.2369 13.193417,0 13.816569,0.022 14.04279,0.2618 0.200221,0.2222 0.236732,0.6265 0.236732,2.624 0,2.1071 -0.02822,2.3882 -0.261576,2.5993 -0.239621,0.2178 -1.421704,0.2367 -14.067657,0.2367 -13.19344,0 -13.81657,-0.022 -14.042813,-0.2616 z m -8.5763753,-9.9468 c -3.0746055,-0.8647 -4.0885558,-4.8278 -1.816479,-7.0997 0.866773,-0.8669 1.6979685,-1.2007 3.0047614,-1.2071 0.890084,0 1.21246,0.062 1.8855449,0.3922 0.92384,0.452 1.597792,1.1491 2.025167,2.0948 0.409776,0.9069 0.40682,2.5471 -0.0067,3.4618 -0.377909,0.8367 -1.316771,1.7849 -2.118366,2.1396 -0.8226846,0.3637 -2.1186553,0.4591 -2.9744062,0.2177 z m 8.5763753,-1.4967 c -0.200221,-0.2222 -0.236732,-0.6264 -0.236732,-2.6242 0,-2.1071 0.02822,-2.388 0.261599,-2.5991 0.239598,-0.2177 1.421703,-0.2369 14.067657,-0.2369 13.193417,0 13.816569,0.022 14.04279,0.2616 0.200221,0.2222 0.236732,0.6267 0.236732,2.6242 0,2.1071 -0.02822,2.3882 -0.261576,2.5993 -0.239621,0.2178 -1.421704,0.2367 -14.067657,0.2367 -13.19344,0 -13.81657,-0.022 -14.042813,-0.2616 z m -8.5763753,-9.9468 c -2.4634533,-0.6929 -3.7332241,-3.4935 -2.677341,-5.9053 0.3412204,-0.7793 1.2967263,-1.7209 2.1269217,-2.096 0.9213728,-0.416 2.5543861,-0.416 3.4757367,0 0.8501729,0.384 1.7834569,1.3173 2.1674549,2.1676 0.416131,0.9213 0.416131,2.5544 0,3.4757 -0.377909,0.8367 -1.316771,1.7849 -2.118366,2.1396 -0.8226847,0.3637 -2.1186554,0.4591 -2.9744063,0.2177 z m 8.5763753,-1.4967 c -0.200221,-0.2222 -0.236732,-0.6264 -0.236732,-2.6242 0,-2.1071 0.02822,-2.388 0.261599,-2.5991 0.239598,-0.2177 1.421703,-0.2368 14.067657,-0.2368 13.193417,0 13.816569,0.022 14.04279,0.2615 0.200221,0.2222 0.236732,0.6267 0.236732,2.6242 0,2.1071 -0.02822,2.3882 -0.261576,2.5993 -0.239621,0.2178 -1.421704,0.2367 -14.067657,0.2367 -13.19344,0 -13.81657,-0.022 -14.042813,-0.2616 z"
       id="path3017"
       inkscape:connector-curvature="0" />
  </g>
</svg>
