<?xml version="1.0" encoding="UTF-8" standalone="no"?>
<svg
   xmlns:dc="http://purl.org/dc/elements/1.1/"
   xmlns:cc="http://creativecommons.org/ns#"
   xmlns:rdf="http://www.w3.org/1999/02/22-rdf-syntax-ns#"
   xmlns:svg="http://www.w3.org/2000/svg"
   xmlns="http://www.w3.org/2000/svg"
   viewBox="0 0 48 48"
   height="48"
   width="48"
   version="1.1"
   id="svg4269">
  <metadata
     id="metadata4275">
    <rdf:RDF>
      <cc:Work
         rdf:about="">
        <dc:format>image/svg+xml</dc:format>
        <dc:type
           rdf:resource="http://purl.org/dc/dcmitype/StillImage" />
        <dc:title></dc:title>
      </cc:Work>
    </rdf:RDF>
  </metadata>
  <defs
     id="defs4273" />
  <g
     transform="matrix(0.14501423,0,0,0.14501423,2.2668324,2.142681)"
     id="g4862">
    <path
       id="path4854"
       d="m 296.24265,21.923927 c 1.19642,0.007 2.39131,2.2246 1.66843,3.17797 -15.01445,19.802 -37.42055,46.79555 -37.42055,46.79555 0,0 0.73991,83.916223 0,122.719943 -0.0804,4.21561 -2.82785,8.21398 -5.72034,11.28178 -2.52393,2.67691 -5.85506,5.5138 -9.53389,5.56144 -49.79794,0.64486 -93.70032,0.30829 -153.360318,0 -3.53631,-0.0183 -7.0123,-2.03871 -9.66279,-4.3798 -3.22557,-2.84904 -6.7473,-6.70745 -6.74149,-11.01109 0.0757,-56.09958 -0.005,-105.370133 -0.5631,-155.597243 -0.0504,-4.53345 3.06992,-8.81979 6.18574,-12.11317 3.1473,-3.32665 7.29131,-6.9194 11.87084,-6.91606 70.492818,0.0514 70.948538,-0.25713 203.277468,0.48068 z"
       style="fill:#d6d6d6;fill-opacity:1;fill-rule:evenodd;stroke:none;stroke-width:1px;stroke-linecap:butt;stroke-linejoin:miter;stroke-opacity:1" />
    <rect
       y="65.279716"
       x="-223.78444"
       height="19.325588"
       width="112.13335"
       id="rect4856"
       style="opacity:1;fill:#abacac;fill-opacity:1;stroke:none;stroke-width:3;stroke-miterlimit:4;stroke-dasharray:6, 3;stroke-dashoffset:0;stroke-opacity:1"
       transform="scale(-1,1)" />
    <rect
       y="138.57986"
       x="-223.78444"
       height="19.326"
       width="75.055183"
       id="rect4860"
       style="opacity:1;fill:#abacac;fill-opacity:1;stroke:none;stroke-width:3;stroke-miterlimit:4;stroke-dasharray:6, 3;stroke-dashoffset:0;stroke-opacity:1"
       transform="scale(-1,1)" />
    <path
       style="fill:#07aaf5;fill-opacity:1;fill-rule:evenodd;stroke:none;stroke-width:1px;stroke-linecap:butt;stroke-linejoin:miter;stroke-opacity:1"
       d="m 3.4957627,94.62394 c -1.1964175,0.0067 -2.391305,2.224596 -1.6684322,3.177966 15.0144525,19.802004 37.4205505,46.795554 37.4205505,46.795554 0,0 -0.739907,79.41662 0,118.22034 0.08038,4.21561 2.827851,8.21398 5.720339,11.28178 2.523936,2.67691 5.855064,5.5138 9.533899,5.56144 49.797931,0.64486 93.700321,0.30829 153.360311,0 3.53631,-0.0183 7.0123,-2.03871 9.66279,-4.3798 3.22557,-2.84904 6.7473,-6.70745 6.74149,-11.01109 -0.0757,-56.09958 0.005,-100.87053 0.5631,-151.09764 0.0504,-4.53345 -3.06992,-8.81979 -6.18574,-12.11317 -3.1473,-3.326651 -7.29131,-6.919406 -11.87084,-6.916067 -70.49282,0.0514 -70.94854,-0.257128 -203.2774673,0.480687 z"
       id="path4846" />
    <rect
       style="opacity:1;fill:#ffffff;fill-opacity:1;stroke:none;stroke-width:3;stroke-miterlimit:4;stroke-dasharray:6, 3;stroke-dashoffset:0;stroke-opacity:1"
       id="rect4848"
       width="112.13335"
       height="19.325588"
       x="75.954056"
       y="137.97966" />
    <rect
       y="174.27942"
       x="75.954056"
       height="19.325588"
       width="112.13335"
       id="rect4850"
       style="opacity:1;fill:#ffffff;fill-opacity:1;stroke:none;stroke-width:3;stroke-miterlimit:4;stroke-dasharray:6, 3;stroke-dashoffset:0;stroke-opacity:1" />
    <rect
       style="opacity:1;fill:#ffffff;fill-opacity:1;stroke:none;stroke-width:3;stroke-miterlimit:4;stroke-dasharray:6, 3;stroke-dashoffset:0;stroke-opacity:1"
       id="rect4852"
       width="75.055183"
       height="19.326"
       x="75.954056"
       y="211.28" />
  </g>
</svg>
