<?xml version="1.0" encoding="UTF-8" standalone="no"?>
<!-- Created with Inkscape (http://www.inkscape.org/) -->

<svg
   xmlns:dc="http://purl.org/dc/elements/1.1/"
   xmlns:cc="http://creativecommons.org/ns#"
   xmlns:rdf="http://www.w3.org/1999/02/22-rdf-syntax-ns#"
   xmlns:svg="http://www.w3.org/2000/svg"
   xmlns="http://www.w3.org/2000/svg"
   xmlns:sodipodi="http://sodipodi.sourceforge.net/DTD/sodipodi-0.dtd"
   xmlns:inkscape="http://www.inkscape.org/namespaces/inkscape"
   width="48"
   height="48"
   id="svg2"
   version="1.1"
   inkscape:version="0.48.4 r9939"
   sodipodi:docname="note.svg">
  <defs
     id="defs4" />
  <sodipodi:namedview
     id="base"
     pagecolor="#ffffff"
     bordercolor="#666666"
     borderopacity="1.0"
     inkscape:pageopacity="0.0"
     inkscape:pageshadow="2"
     inkscape:zoom="5.6"
     inkscape:cx="47.885107"
     inkscape:cy="41.704536"
     inkscape:document-units="px"
     inkscape:current-layer="layer1"
     showgrid="false"
     inkscape:window-width="1920"
     inkscape:window-height="1056"
     inkscape:window-x="0"
     inkscape:window-y="24"
     inkscape:window-maximized="1" />
  <metadata
     id="metadata7">
    <rdf:RDF>
      <cc:Work
         rdf:about="">
        <dc:format>image/svg+xml</dc:format>
        <dc:type
           rdf:resource="http://purl.org/dc/dcmitype/StillImage" />
        <dc:title />
      </cc:Work>
    </rdf:RDF>
  </metadata>
  <g
     inkscape:label="Capa 1"
     inkscape:groupmode="layer"
     id="layer1"
     transform="translate(0,-1004.3622)">
    <path
       style="fill:#000000"
       d="m 7.2882523,1045.3419 c -0.1708889,-0.1222 -0.3536888,-0.4167 -0.4062444,-0.656 -0.108,-0.4915 0.1046667,-0.8229 1.5542665,-2.4224 1.1547554,-1.2743 1.8132216,-2.2896 2.4165776,-3.7263 0.808733,-1.9257 0.845022,-1.7177 -0.446489,-2.5571 -5.3394215,-3.4691 -7.6147988,-9.0244 -5.7797992,-14.1115 0.9441332,-2.6174 3.1714884,-5.2376 5.9694662,-7.022 6.76751,-4.316 16.956841,-4.8251 24.502795,-1.2245 4.988888,2.3805 8.130132,6.0958 8.78571,10.3909 0.924222,6.0554 -3.76911,11.9256 -11.595398,14.5029 -2.923844,0.9629 -6.365866,1.41 -9.625443,1.2502 l -1.96791,-0.096 -0.966289,0.7766 c -2.624489,2.1096 -5.917133,3.7245 -9.365532,4.5932 -1.9705997,0.4964 -2.7021108,0.5682 -3.0757107,0.3024 z m 6.9791547,-4.7711 c 1.647577,-0.8389 2.843777,-1.6382 4.377755,-2.9253 l 1.170155,-0.9818 1.457178,0.1489 c 7.820753,0.8026 15.383152,-2.0434 18.582152,-6.9927 0.929222,-1.4378 1.235,-2.5269 1.229666,-4.3798 -0.0044,-1.7464 -0.2328,-2.5889 -1.1002,-4.0695 -0.616466,-1.0525 -2.64471,-3.0798 -3.918843,-3.9171 -6.871933,-4.5167 -17.265886,-4.5176 -24.15553,0 -0.560311,0.3673 -1.607155,1.2569 -2.3263325,1.9769 -1.0731998,1.0744 -1.4113331,1.5253 -1.8864441,2.5153 -0.7016444,1.4622 -0.9518666,2.6604 -0.8464666,4.054 0.2388889,3.1587 2.3037552,5.9284 6.1382662,8.2335 0.971733,0.5843 1.788688,1.0785 1.815444,1.0985 0.117777,0.087 -1.183245,4.0711 -1.617244,4.952 -0.264023,0.536 -0.431978,0.9744 -0.373245,0.9744 0.05867,0 0.712889,-0.3086 1.453689,-0.686 z"
       id="path3056"
       inkscape:connector-curvature="0" />
  </g>
</svg>
