<?xml version="1.0" encoding="UTF-8" standalone="no"?>
<!-- Created with Inkscape (http://www.inkscape.org/) -->

<svg
   xmlns:dc="http://purl.org/dc/elements/1.1/"
   xmlns:cc="http://creativecommons.org/ns#"
   xmlns:rdf="http://www.w3.org/1999/02/22-rdf-syntax-ns#"
   xmlns:svg="http://www.w3.org/2000/svg"
   xmlns="http://www.w3.org/2000/svg"
   xmlns:sodipodi="http://sodipodi.sourceforge.net/DTD/sodipodi-0.dtd"
   xmlns:inkscape="http://www.inkscape.org/namespaces/inkscape"
   id="svg3039"
   version="1.1"
   inkscape:version="0.48.4 r9939"
   width="24"
   height="24"
   sodipodi:docname="pushbullet-indicator-sync2-light.svg">
  <metadata
     id="metadata3045">
    <rdf:RDF>
      <cc:Work
         rdf:about="">
        <dc:format>image/svg+xml</dc:format>
        <dc:type
           rdf:resource="http://purl.org/dc/dcmitype/StillImage" />
        <dc:title></dc:title>
      </cc:Work>
    </rdf:RDF>
  </metadata>
  <defs
     id="defs3043" />
  <sodipodi:namedview
     pagecolor="#ffffff"
     bordercolor="#666666"
     borderopacity="1"
     objecttolerance="10"
     gridtolerance="10"
     guidetolerance="10"
     inkscape:pageopacity="0"
     inkscape:pageshadow="2"
     inkscape:window-width="1504"
     inkscape:window-height="868"
     id="namedview3041"
     showgrid="false"
     inkscape:zoom="8.6130167"
     inkscape:cx="-5.6615825"
     inkscape:cy="-13.557877"
     inkscape:window-x="44"
     inkscape:window-y="392"
     inkscape:window-maximized="0"
     inkscape:current-layer="svg3039" />
  <g
     id="g4009">
    <path
       inkscape:connector-curvature="0"
       style="fill:#dfdbd3;fill-opacity:1"
       d="m 3.5949443,5.1878825 -0.28125,0.3125 -0.3125,0.3125 0,6.1874995 c 0,6.91149 -0.04556,6.53897 0.71875,6.71875 0.52541,0.12358 2.45756,0.12438 2.90625,0 0.72728,-0.20197 0.71908,0.01691 0.6875,-6.875 l -0.03125,-6.1562495 -0.28125,-0.25 c -0.27815,-0.23921 -0.35455,-0.25 -1.84375,-0.25 l -1.5625,0 z m 5.28125,0 -0.3125,0.3125 -0.3125,0.3125 0.03125,6.1874995 0.03125,6.1875 0.25,0.25 c 0.13464,0.14328 0.35095,0.28583 0.5,0.3125 0.14904,0.0267 1.6017697,0.0182 3.2187497,0 3.29765,-0.037 3.6058,-0.06558 5,-0.75 3.03978,-1.49221 4.48058,-5.09446 3.3125,-8.3124995 -0.77144,-2.12526 -2.51229,-3.70894 -4.75,-4.28125 -0.70285,-0.17976 -1.17427,-0.21875 -3.90625,-0.21875 l -3.0624997,0 z"
       id="path3990" />
    <path
       inkscape:connector-curvature="0"
       id="path3883"
       d="m 17.448497,14.743985 c 2.828427,-2.828424 3e-6,-5.6568497 3e-6,-5.6568497 l -0.70711,0.707105 c 0,0 2.12132,2.1213177 -10e-7,4.2426377 -0.827314,0.827317 -1.640843,1.014345 -2.342288,0.92808 l 0.928077,-0.928081 -0.707107,-0.707107 -1.414214,1.414216 -0.707106,0.707107 0.707106,0.707105 1.414214,1.414216 0.707107,-0.70711 -0.883885,-0.883883 c 0.904329,0.0739 1.956848,-0.189081 3.005204,-1.237436 z M 12.498753,14.03688 c 0,0 -2.121324,-2.121321 -1e-6,-4.2426397 0.827313,-0.827318 1.640788,-1.013898 2.34229,-0.92808 l -0.928079,0.928079 0.707108,0.7071067 1.414214,-1.4142147 0.707105,-0.707104 -0.707106,-0.70711 -1.414213,-1.414215 -0.707108,0.707109 0.883885,0.883883 c -0.904324,-0.0739 -1.956847,0.189085 -3.005205,1.237438 -2.828425,2.8284287 10e-7,5.6568547 10e-7,5.6568547 l 0.707109,-0.707107 z"
       style="fill:#3c3c3c;fill-opacity:1;stroke:none" />
  </g>
</svg>
