<?xml version="1.0" encoding="UTF-8" standalone="no"?>
<!-- Created with Inkscape (http://www.inkscape.org/) -->

<svg
   xmlns:dc="http://purl.org/dc/elements/1.1/"
   xmlns:cc="http://creativecommons.org/ns#"
   xmlns:rdf="http://www.w3.org/1999/02/22-rdf-syntax-ns#"
   xmlns:svg="http://www.w3.org/2000/svg"
   xmlns="http://www.w3.org/2000/svg"
   xmlns:sodipodi="http://sodipodi.sourceforge.net/DTD/sodipodi-0.dtd"
   xmlns:inkscape="http://www.inkscape.org/namespaces/inkscape"
   id="svg3039"
   version="1.1"
   inkscape:version="0.48.4 r9939"
   width="24"
   height="24"
   sodipodi:docname="pushbullet-indicator-sync0-light.svg">
  <metadata
     id="metadata3045">
    <rdf:RDF>
      <cc:Work
         rdf:about="">
        <dc:format>image/svg+xml</dc:format>
        <dc:type
           rdf:resource="http://purl.org/dc/dcmitype/StillImage" />
        <dc:title />
      </cc:Work>
    </rdf:RDF>
  </metadata>
  <defs
     id="defs3043" />
  <sodipodi:namedview
     pagecolor="#ffffff"
     bordercolor="#666666"
     borderopacity="1"
     objecttolerance="10"
     gridtolerance="10"
     guidetolerance="10"
     inkscape:pageopacity="0"
     inkscape:pageshadow="2"
     inkscape:window-width="1504"
     inkscape:window-height="868"
     id="namedview3041"
     showgrid="false"
     inkscape:zoom="8.6130167"
     inkscape:cx="-5.6615825"
     inkscape:cy="23.595192"
     inkscape:window-x="44"
     inkscape:window-y="184"
     inkscape:window-maximized="0"
     inkscape:current-layer="svg3039" />
  <g
     id="g3997"
     transform="translate(0.00119434,3.8237901e-4)">
    <path
       id="path3075"
       d="M 3.59375,5.1875 3.3125,5.5 3,5.8125 3,12 c 0,6.91149 -0.04556,6.53897 0.71875,6.71875 0.52541,0.12358 2.45756,0.12438 2.90625,0 0.72728,-0.20197 0.71908,0.01691 0.6875,-6.875 L 7.28125,5.6875 7,5.4375 C 6.72185,5.19829 6.64545,5.1875 5.15625,5.1875 l -1.5625,0 z m 5.28125,0 L 8.5625,5.5 8.25,5.8125 8.28125,12 l 0.03125,6.1875 0.25,0.25 c 0.13464,0.14328 0.35095,0.28583 0.5,0.3125 0.14904,0.0267 1.60177,0.0182 3.21875,0 3.29765,-0.037 3.6058,-0.06558 5,-0.75 3.03978,-1.49221 4.48058,-5.09446 3.3125,-8.3125 C 19.82231,7.56224 18.08146,5.97856 15.84375,5.40625 15.1409,5.22649 14.66948,5.1875 11.9375,5.1875 l -3.0625,0 z"
       style="fill:#dfdbd3;fill-opacity:1"
       inkscape:connector-curvature="0" />
    <path
       style="fill:#3c3c3c;fill-opacity:1;stroke:none"
       d="m 14.620072,7.9155595 c -3.999998,-2e-6 -3.999999,3.9999945 -3.999999,3.9999945 l 1.000001,3e-6 c 0,0 -2e-6,-2.9999975 2.999998,-2.9999965 1.170001,-2e-6 1.877502,0.4430007 2.3125,0.9999957 l -1.312502,3e-6 0,0.9999998 2.000002,-10e-7 0.999999,-1e-6 0,-0.9999978 1e-6,-2.0000017 -1.000002,2e-6 1e-6,1.250001 c -0.587201,-0.691713 -1.517401,-1.25 -2.999999,-1.250001 z m 2.999999,3.9999955 c 0,0 2e-6,3.000003 -2.999999,3 -1.170001,4e-6 -1.877147,-0.443278 -2.312501,-0.999997 l 1.312502,0 -10e-7,-1.000001 -2.000001,1e-6 -0.999997,-1e-6 -3e-6,1.000002 -10e-7,2 1.000002,0 -1e-6,-1.250001 c 0.5872,0.691707 1.517403,1.249996 3.000001,1.25 4,-3e-6 4,-4.000001 4,-4.000001 l -1.000001,-2e-6 z"
       id="path3877"
       inkscape:connector-curvature="0" />
  </g>
</svg>
